<svg height="512pt" viewBox="0 0 512 512" width="512pt" xmlns="http://www.w3.org/2000/svg"><path d="m512 256c0 80.714844-37.363281 152.6875-95.726562 199.609375-1.304688-.441406-2.695313-.695313-4.148438-.695313-7.132812 0-12.917969 5.785157-12.917969 12.917969 0 .128907.015625.253907.019531.382813-17.808593 12.039062-37.21875 21.882812-57.835937 29.175781-1.898437-1.089844-4.089844-1.726563-6.433594-1.726563-5.144531 0-9.574219 3.019532-11.652343 7.375-18.625 5.0625-38.089844 8.074219-58.148438 8.78125-2.277344-2.007812-5.257812-3.238281-8.53125-3.238281-3.300781 0-6.300781 1.246094-8.582031 3.28125-19.910157-.605469-39.242188-3.488281-57.757813-8.394531-2.074218-4.363281-6.507812-7.386719-11.660156-7.386719-2.40625 0-4.648438.671875-6.578125 1.816407-20.378906-7.074219-39.585937-16.644532-57.257813-28.355469.074219-.558594.125-1.128907.125-1.710938 0-7.132812-5.78125-12.917969-12.914062-12.917969-1.992188 0-3.871094.464844-5.558594 1.273438-58.769531-46.910156-96.441406-119.144531-96.441406-200.1875 0-141.386719 114.613281-256 256-256s256 114.613281 256 256zm0 0" fill="#2b6c7e"/><path d="m76.25 376.875c0 7.25-5.875 13.125-13.125 13.125s-13.125-5.875-13.125-13.125 5.875-13.125 13.125-13.125 13.125 5.875 13.125 13.125zm-13.125-55c-7.25 0-13.125 5.875-13.125 13.125s5.875 13.125 13.125 13.125 13.125-5.875 13.125-13.125-5.875-13.125-13.125-13.125zm0-41.875c-7.25 0-13.125 5.875-13.125 13.125s5.875 13.125 13.125 13.125 13.125-5.875 13.125-13.125-5.875-13.125-13.125-13.125zm310 153.75c-7.25 0-13.125 5.875-13.125 13.125s5.875 13.125 13.125 13.125 13.125-5.875 13.125-13.125-5.875-13.125-13.125-13.125zm0-41.875c-7.25 0-13.125 5.875-13.125 13.125s5.875 13.125 13.125 13.125 13.125-5.875 13.125-13.125-5.875-13.125-13.125-13.125zm0-41.875c-7.25 0-13.125 5.875-13.125 13.125s5.875 13.125 13.125 13.125 13.125-5.875 13.125-13.125-5.875-13.125-13.125-13.125zm70-38.125c-7.25 0-13.125 5.875-13.125 13.125s5.875 13.125 13.125 13.125 13.125-5.875 13.125-13.125-5.875-13.125-13.125-13.125zm-226.269531 21.894531c-7.246094 0-13.125 5.878907-13.125 13.125 0 7.25 5.878906 13.125 13.125 13.125 7.25 0 13.125-5.875 13.125-13.125 0-7.246093-5.875-13.125-13.125-13.125zm.019531-41.894531c-7.25 0-13.125 5.875-13.125 13.125s5.875 13.125 13.125 13.125 13.125-5.875 13.125-13.125-5.875-13.125-13.125-13.125zm76.25-118.125c-7.25 0-13.125 5.875-13.125 13.125s5.875 13.125 13.125 13.125 13.125-5.875 13.125-13.125-5.875-13.125-13.125-13.125zm0-41.875c-7.25 0-13.125 5.875-13.125 13.125s5.875 13.125 13.125 13.125 13.125-5.875 13.125-13.125-5.875-13.125-13.125-13.125zm0-41.875c-7.25 0-13.125 5.875-13.125 13.125s5.875 13.125 13.125 13.125 13.125-5.875 13.125-13.125-5.875-13.125-13.125-13.125zm0 0" fill="#01bff9"/><path d="m67.453125 229.050781c-5.460937-5.628906-8.472656-13.046875-8.472656-20.894531v-18.136719c0-.074219-.007813-.144531-.007813-.21875 6.382813-1.605469 12.433594-4.898437 17.425782-9.894531 14.722656-14.71875 14.722656-38.582031 0-53.304688-14.71875-14.71875-38.582032-14.71875-53.304688 0-14.71875 14.722657-14.71875 38.585938 0 53.304688 4.601562 4.601562 10.09375 7.761719 15.917969 9.488281-.011719.207031-.03125.414063-.03125.625v18.136719c0 13.078125 5.015625 25.445312 14.121093 34.824219l34.277344 35.316406c5.460938 5.628906 8.472656 13.050781 8.472656 20.894531v156.554688c6.417969 5.152344 13.09375 10.003906 20 14.53125v-171.085938c0-13.074218-5.015624-25.441406-14.121093-34.824218zm-17.707031-60.796875c-8.28125 0-15-6.714844-15-15 0-8.28125 6.71875-15 15-15 8.285156 0 15 6.71875 15 15 0 8.285156-6.714844 15-15 15zm420.777344-51.929687c-9.050782.421875-17.976563 4.085937-24.886719 10.996093-14.71875 14.71875-14.71875 38.585938 0 53.304688 4.84375 4.84375 10.675781 8.082031 16.84375 9.738281v35.136719c0 8.015625-3.117188 15.546875-8.785157 21.214844l-41.625 41.621094c-9.441406 9.445312-14.644531 22-14.644531 35.355468v145.71875c6.910157-4.589844 13.585938-9.503906 20-14.722656v-130.996094c0-8.011718 3.121094-15.546875 8.789063-21.214844l41.621094-41.621093c9.445312-9.445313 14.644531-22 14.644531-35.355469v-35.242188c6.027343-1.6875 11.71875-4.890624 16.460937-9.632812.453125-.453125.894532-.914062 1.320313-1.386719-7.054688-22.464843-17.128907-43.589843-29.738281-62.914062zm1.765624 52.648437c-8.28125 0-15-6.714844-15-15s6.71875-15 15-15c8.285157 0 15 6.714844 15 15s-6.714843 15-15 15zm-78.886718-92.371094c-14.722656-14.71875-38.585938-14.71875-53.304688 0-14.722656 14.71875-14.722656 38.585938 0 53.304688 4.753906 4.753906 10.464844 7.964844 16.511719 9.648438v61.683593c0 8.011719-3.121094 15.546875-8.789063 21.210938l-72.871093 72.875-44.355469-44.355469 21.503906-21.625c9.378906-9.433594 14.542969-21.953125 14.542969-35.253906v-120.21875c5.855469-1.71875 11.375-4.886719 15.996094-9.503906 14.71875-14.722657 14.71875-38.585938 0-53.304688-14.722657-14.722656-38.585938-14.722656-53.304688 0-14.722656 14.71875-14.722656 38.582031 0 53.304688 4.960938 4.960937 10.96875 8.246093 17.308594 9.859374v119.863282c0 7.980468-3.097656 15.496094-8.726563 21.152344l-21.460937 21.582031-54.921875-54.917969c-5.667969-5.667969-8.789062-13.203125-8.789062-21.214844v-20.972656c6.277343-1.632812 12.210937-4.894531 17.128906-9.8125 14.71875-14.71875 14.71875-38.585938 0-53.304688-14.722656-14.71875-38.585938-14.71875-53.304688 0-14.722656 14.71875-14.722656 38.585938 0 53.304688 4.667969 4.667969 10.253906 7.851562 16.175782 9.558594v21.226562c0 13.355469 5.203124 25.910156 14.648437 35.355469l54.960937 54.960937-16.5625 16.65625c-9.378906 9.433594-14.542968 21.953126-14.542968 35.253907v194.722656c6.550781 2.296875 13.21875 4.347656 20 6.113281v-200.835937c0-7.980469 3.101562-15.492188 8.726562-21.152344l16.519532-16.617187 44.328124 44.328124c-9.144531 9.386719-14.179687 21.738282-14.179687 34.867188v167.488281c3.101563.109375 6.214844.167969 9.34375.167969 3.570313 0 7.121094-.074219 10.65625-.21875v-167.4375c0-7.789062 2.953125-15.117188 8.324219-20.722656l38.285156 38.285156c5.664062 5.664062 8.785156 13.199219 8.785156 21.210938v120.28125c6.78125-1.804688 13.453125-3.882813 20-6.21875v-114.0625c0-13.351563-5.199218-25.910157-14.644531-35.355469l-38.296875-38.296875 72.871094-72.871094c9.441406-9.445312 14.644531-22 14.644531-35.355469v-61.609375c6.152344-1.660156 11.964844-4.894531 16.792969-9.722656 14.71875-14.71875 14.71875-38.585938 0-53.304688zm-152.421875-38.886718c0-8.285156 6.71875-15 15-15 8.285156 0 15 6.714844 15 15 0 8.28125-6.714844 15-15 15-8.28125 0-15-6.71875-15-15zm-97.765625 80.539062c-8.28125 0-15-6.714844-15-15 0-8.28125 6.71875-15 15-15 8.285156 0 15 6.71875 15 15 0 8.285156-6.714844 15-15 15zm223.535156 0c-8.285156 0-15-6.714844-15-15 0-8.28125 6.714844-15 15-15 8.28125 0 15 6.71875 15 15 0 8.285156-6.71875 15-15 15zm-60.5 68.621094c0 5.664062-3.597656 10.476562-8.625 12.316406-5.027344-1.839844-8.625-6.652344-8.625-12.316406s3.597656-10.476562 8.625-12.316406c5.027344 1.839844 8.625 6.652344 8.625 12.316406zm80 218.125c0 5.664062-3.597656 10.476562-8.625 12.316406-5.027344-1.839844-8.625-6.652344-8.625-12.316406s3.597656-10.476562 8.625-12.316406c5.027344 1.839844 8.625 6.652344 8.625 12.316406zm0-41.875c0 5.664062-3.597656 10.476562-8.625 12.316406-5.027344-1.839844-8.625-6.652344-8.625-12.316406s3.597656-10.476562 8.625-12.316406c5.027344 1.839844 8.625 6.652344 8.625 12.316406zm-88.625-272.316406c5.027344 1.839844 8.625 6.652344 8.625 12.316406s-3.597656 10.476562-8.625 12.316406c-5.027344-1.839844-8.625-6.652344-8.625-12.316406s3.597656-10.476562 8.625-12.316406zm158.625 234.191406c0 5.664062-3.597656 10.476562-8.625 12.316406-5.027344-1.839844-8.625-6.652344-8.625-12.316406s3.597656-10.476562 8.625-12.316406c5.027344 1.839844 8.625 6.652344 8.625 12.316406zm-70 121.875c0 5.664062-3.597656 10.476562-8.625 12.316406-5.027344-1.839844-8.625-6.652344-8.625-12.316406s3.597656-10.476562 8.625-12.316406c5.027344 1.839844 8.625 6.652344 8.625 12.316406zm-310-111.875c0 5.664062-3.597656 10.476562-8.625 12.316406-5.027344-1.839844-8.625-6.652344-8.625-12.316406s3.597656-10.476562 8.625-12.316406c5.027344 1.839844 8.625 6.652344 8.625 12.316406zm230-190c0 5.664062-3.597656 10.476562-8.625 12.316406-5.027344-1.839844-8.625-6.652344-8.625-12.316406s3.597656-10.476562 8.625-12.316406c5.027344 1.839844 8.625 6.652344 8.625 12.316406zm-230 148.125c0 5.664062-3.597656 10.476562-8.625 12.316406-5.027344-1.839844-8.625-6.652344-8.625-12.316406s3.597656-10.476562 8.625-12.316406c5.027344 1.839844 8.625 6.652344 8.625 12.316406zm0 83.75c0 5.664062-3.597656 10.476562-8.625 12.316406-5.027344-1.839844-8.625-6.652344-8.625-12.316406s3.597656-10.476562 8.625-12.316406c5.027344 1.839844 8.625 6.652344 8.625 12.316406zm153.75-71.875c0 5.664062-3.597656 10.476562-8.625 12.316406-5.027344-1.839844-8.625-6.652344-8.625-12.316406s3.597656-10.476562 8.625-12.316406c5.027344 1.839844 8.625 6.652344 8.625 12.316406zm-.019531 41.894531c0 5.667969-3.59375 10.480469-8.625 12.316407-5.027344-1.839844-8.625-6.648438-8.625-12.316407 0-5.664062 3.597656-10.476562 8.625-12.316406 5.03125 1.839844 8.625 6.652344 8.625 12.316406zm0 0" fill="#01cffa"/><path d="m282.652344 11.039062c-4.570313-4.570312-10.019532-7.71875-15.804688-9.449218-5.785156 1.730468-11.238281 4.882812-15.808594 9.449218-14.71875 14.722657-14.71875 38.585938 0 53.304688 4.570313 4.570312 10.023438 7.71875 15.808594 9.453125 5.785156-1.734375 11.238282-4.882813 15.804688-9.453125 14.71875-14.71875 14.71875-38.582031 0-53.304688zm-26.652344 41.652344c-8.285156 0-15-6.714844-15-15s6.714844-15 15-15 15 6.714844 15 15-6.714844 15-15 15zm137.417969 23.890625c-4.570313-4.570312-10.019531-7.71875-15.804688-9.449219-5.785156 1.730469-11.238281 4.878907-15.808593 9.449219-14.71875 14.71875-14.71875 38.585938 0 53.304688 4.570312 4.570312 10.019531 7.71875 15.808593 9.449219 5.785157-1.730469 11.234375-4.878907 15.804688-9.449219 14.71875-14.71875 14.71875-38.585938 0-53.304688zm-26.652344 41.652344c-8.285156 0-15-6.714844-15-15s6.714844-15 15-15 15 6.714844 15 15-6.714844 15-15 15zm107.351563 3.707031c-2.402344 1.496094-4.679688 3.269532-6.769532 5.359375-14.71875 14.71875-14.71875 38.585938 0 53.304688 4.570313 4.570312 10.019532 7.71875 15.804688 9.449219 5.785156-1.730469 11.238281-4.878907 15.808594-9.449219.453124-.453125.890624-.917969 1.316406-1.386719-6.375-20.300781-15.214844-39.507812-26.160156-57.277344zm-1.808594 47.011719c-8.285156 0-15-6.71875-15-15 0-8.285156 6.714844-15 15-15s15 6.714844 15 15-6.714844 15-15 15zm-302.421875-92.371094c-4.570313-4.570312-10.019531-7.71875-15.804688-9.449219-5.785156 1.730469-11.238281 4.878907-15.808593 9.449219-14.71875 14.71875-14.71875 38.585938 0 53.304688 4.570312 4.570312 10.023437 7.71875 15.808593 9.449219 5.785157-1.730469 11.234375-4.878907 15.804688-9.449219 14.71875-14.71875 14.71875-38.585938 0-53.304688zm-26.652344 41.652344c-8.285156 0-15-6.714844-15-15s6.714844-15 15-15 15 6.714844 15 15-6.714844 15-15 15zm-66.816406 8.347656c-4.570313-4.570312-10.019531-7.71875-15.804688-9.449219-5.785156 1.730469-11.238281 4.878907-15.804687 9.449219-14.722656 14.71875-14.722656 38.585938 0 53.304688 4.570312 4.570312 10.019531 7.71875 15.804687 9.449219 5.785157-1.730469 11.238281-4.878907 15.804688-9.449219 14.71875-14.71875 14.71875-38.585938 0-53.304688zm-26.652344 41.652344c-8.285156 0-15-6.714844-15-15s6.714844-15 15-15 15 6.714844 15 15-6.714844 15-15 15zm0 0" fill="#62dafa"/></svg>